<svg>
<g id="Group 1">
<path id="Vector" d="M2.66667 0.666779C1.95942 0.666779 1.28115 0.94773 0.781049 1.44783C0.280952 1.94792 0 2.6262 0 3.33345L0 15.3334C0 16.0407 0.280952 16.719 0.781049 17.2191C1.28115 17.7192 1.95942 18.0001 2.66667 18.0001H8V0.666779H2.66667Z" fill="#009A49"/>
<path id="Vector_2" d="M8 0.666779H16V18.0001H8V0.666779Z" fill="#EEEEEE"/>
<path id="Vector_3" d="M21.3333 0.666779H16V18.0001H21.3333C22.0406 18.0001 22.7189 17.7192 23.219 17.2191C23.719 16.719 24 16.0407 24 15.3334V3.33345C24 2.6262 23.719 1.94792 23.219 1.44783C22.7189 0.94773 22.0406 0.666779 21.3333 0.666779Z" fill="#009A49"/>
</g>
</svg>
